<svg width="1331" height="464" viewBox="0 0 1331 464" fill="none" xmlns="http://www.w3.org/2000/svg">
<rect width="1331" height="464" rx="46.7434" fill="#2F3234"/>
<rect x="20" y="10" width="38" height="38" rx="19" fill="black"/>
<rect x="24" y="14" width="30" height="30" rx="15" fill="#111110"/>
<rect x="20" y="416" width="38" height="38" rx="19" fill="black"/>
<rect x="24" y="420" width="30" height="30" rx="15" fill="#111110"/>
<rect x="1273" y="10" width="38" height="38" rx="19" fill="black"/>
<rect x="1277" y="14" width="30" height="30" rx="15" fill="#111110"/>
<rect x="1273" y="416" width="38" height="38" rx="19" fill="black"/>
<rect x="1277" y="420" width="30" height="30" rx="15" fill="#111110"/>
<g filter="url(#filter0_d_2362_15901)">
<rect x="58" y="40" width="1215" height="384" rx="7.47894" fill="black"/>
</g>
<g filter="url(#filter1_d_2362_15901)">
<rect x="69" y="51" width="1193" height="362" rx="6.60219" fill="#006771"/>
</g>
<defs>
<filter id="filter0_d_2362_15901" x="54.2605" y="40" width="1222.48" height="395.218" filterUnits="userSpaceOnUse" color-interpolation-filters="sRGB">
<feFlood flood-opacity="0" result="BackgroundImageFix"/>
<feColorMatrix in="SourceAlpha" type="matrix" values="0 0 0 0 0 0 0 0 0 0 0 0 0 0 0 0 0 0 127 0" result="hardAlpha"/>
<feOffset dy="7.47894"/>
<feGaussianBlur stdDeviation="1.86974"/>
<feComposite in2="hardAlpha" operator="out"/>
<feColorMatrix type="matrix" values="0 0 0 0 0 0 0 0 0 0 0 0 0 0 0 0 0 0 0.25 0"/>
<feBlend mode="normal" in2="BackgroundImageFix" result="effect1_dropShadow_2362_15901"/>
<feBlend mode="normal" in="SourceGraphic" in2="effect1_dropShadow_2362_15901" result="shape"/>
</filter>
<filter id="filter1_d_2362_15901" x="52.4945" y="34.4945" width="1226.01" height="395.011" filterUnits="userSpaceOnUse" color-interpolation-filters="sRGB">
<feFlood flood-opacity="0" result="BackgroundImageFix"/>
<feColorMatrix in="SourceAlpha" type="matrix" values="0 0 0 0 0 0 0 0 0 0 0 0 0 0 0 0 0 0 127 0" result="hardAlpha"/>
<feOffset/>
<feGaussianBlur stdDeviation="8.25274"/>
<feComposite in2="hardAlpha" operator="out"/>
<feColorMatrix type="matrix" values="0 0 0 0 0.0588235 0 0 0 0 0.639216 0 0 0 0 0.694118 0 0 0 1 0"/>
<feBlend mode="normal" in2="BackgroundImageFix" result="effect1_dropShadow_2362_15901"/>
<feBlend mode="normal" in="SourceGraphic" in2="effect1_dropShadow_2362_15901" result="shape"/>
</filter>
</defs>
</svg>
