<svg width="536" height="538" viewBox="0 0 536 538" fill="none" xmlns="http://www.w3.org/2000/svg">
<path fill-rule="evenodd" clip-rule="evenodd" d="M268 426C362.993 426 440 348.993 440 254C440 159.007 362.993 82 268 82C173.007 82 96 159.007 96 254C96 348.993 173.007 426 268 426ZM268 414C356.366 414 428 342.366 428 254C428 165.634 356.366 94 268 94C179.634 94 108 165.634 108 254C108 342.366 179.634 414 268 414Z" fill="#181C20"/>
<path d="M132 359.312V456.613C170.859 482.748 217.649 498 268 498C317.92 498 364.339 483.008 403 457.282V360.59C371.499 400.433 322.735 426 268 426C212.682 426 163.464 399.885 132 359.312Z" fill="url(#paint0_linear_1179_1641)"/>
<g filter="url(#filter0_ddd_1179_1641)">
<path fill-rule="evenodd" clip-rule="evenodd" d="M268 498C402.757 498 512 388.757 512 254C512 119.243 402.757 10 268 10C133.243 10 24 119.243 24 254C24 388.757 133.243 498 268 498ZM268 426C362.993 426 440 348.993 440 254C440 159.007 362.993 82 268 82C173.007 82 96 159.007 96 254C96 348.993 173.007 426 268 426Z" fill="url(#paint1_linear_1179_1641)"/>
</g>
<path d="M381 37.687C347.216 20.0022 308.776 10 268 10C226.821 10 188.025 20.2008 154 38.2134V125.203C184.349 98.3205 224.269 82 268 82C311.253 82 350.777 97.9652 381 124.324V37.687Z" fill="url(#paint2_linear_1179_1641)"/>
<path fill-rule="evenodd" clip-rule="evenodd" d="M268 496C401.653 496 510 387.653 510 254C510 120.347 401.653 12 268 12C134.347 12 26 120.347 26 254C26 387.653 134.347 496 268 496ZM442 254C442 350.098 364.098 428 268 428C171.902 428 94 350.098 94 254C94 157.902 171.902 80 268 80C364.098 80 442 157.902 442 254ZM512 254C512 388.757 402.757 498 268 498C133.243 498 24 388.757 24 254C24 119.243 133.243 10 268 10C402.757 10 512 119.243 512 254ZM440 254C440 348.993 362.993 426 268 426C173.007 426 96 348.993 96 254C96 159.007 173.007 82 268 82C362.993 82 440 159.007 440 254Z" fill="#1E2429"/>
<g opacity="0.4">
<path d="M458.082 101C413.356 45.5044 344.824 10 268 10C191.176 10 122.644 45.5044 77.918 101H80.4936C124.871 46.6791 192.386 12 268 12C343.614 12 411.129 46.6791 455.506 101H458.082Z" fill="url(#paint3_linear_1179_1641)"/>
<path d="M350.937 101C326.283 87.6073 298.03 80 268 80C237.97 80 209.717 87.6073 185.063 101H189.34C212.913 88.856 239.656 82 268 82C296.344 82 323.087 88.856 346.66 101H350.937Z" fill="url(#paint4_linear_1179_1641)"/>
</g>
<path fill-rule="evenodd" clip-rule="evenodd" d="M268 483C394.473 483 497 380.473 497 254C497 127.527 394.473 25 268 25C141.527 25 39 127.527 39 254C39 380.473 141.527 483 268 483ZM268 426C362.993 426 440 348.993 440 254C440 159.007 362.993 82 268 82C173.007 82 96 159.007 96 254C96 348.993 173.007 426 268 426Z" fill="#1E2429"/>
<path opacity="0.4" d="M359 43.7937C331.108 31.7024 300.337 25 268 25C235.663 25 204.892 31.7024 177 43.7937V45.9759C204.859 33.7719 235.638 27 268 27C300.362 27 331.141 33.7719 359 45.9759V43.7937Z" fill="url(#paint5_linear_1179_1641)"/>
<circle opacity="0.12" cx="268" cy="254" r="173" stroke="#8A99A8" stroke-width="2"/>
<circle cx="268" cy="254" r="203" stroke="#0FA3B1" stroke-width="4"/>
<g filter="url(#filter1_f_1179_1641)">
<path fill-rule="evenodd" clip-rule="evenodd" d="M268 53C156.991 53 67 142.991 67 254C67 365.009 156.991 455 268 455C379.009 455 469 365.009 469 254C469 142.991 379.009 53 268 53ZM63 254C63 140.782 154.782 49 268 49C381.218 49 473 140.782 473 254C473 367.218 381.218 459 268 459C154.782 459 63 367.218 63 254Z" fill="#0FA3B1"/>
</g>
<g filter="url(#filter2_f_1179_1641)">
<path fill-rule="evenodd" clip-rule="evenodd" d="M268 53C156.991 53 67 142.991 67 254C67 365.009 156.991 455 268 455C379.009 455 469 365.009 469 254C469 142.991 379.009 53 268 53ZM63 254C63 140.782 154.782 49 268 49C381.218 49 473 140.782 473 254C473 367.218 381.218 459 268 459C154.782 459 63 367.218 63 254Z" fill="#0FA3B1" style="mix-blend-mode:screen"/>
</g>
<g opacity="0.75">
<circle cx="268" cy="254" r="161" fill="black"/>
<circle cx="268" cy="254" r="161" stroke="#0FA3B1" stroke-width="2" style="mix-blend-mode:screen"/>
</g>
<g filter="url(#filter3_dddddd_1179_1641)">
<circle cx="268" cy="254" r="135" stroke="#0FA3B1" stroke-width="4" style="mix-blend-mode:screen"/>
</g>
<g opacity="0.19">
<circle cx="268" cy="254" r="173" stroke="#0FA3B1" stroke-width="2" style="mix-blend-mode:screen"/>
</g>
<path d="M155.989 241.158V235.636H185.001V241.158H173.762V272H167.228V241.158H155.989ZM198.429 272.533C195.695 272.533 193.333 271.964 191.345 270.828C189.368 269.68 187.847 268.058 186.781 265.963C185.716 263.856 185.183 261.376 185.183 258.523C185.183 255.718 185.716 253.256 186.781 251.137C187.859 249.006 189.362 247.349 191.291 246.165C193.221 244.97 195.488 244.372 198.092 244.372C199.773 244.372 201.359 244.644 202.85 245.189C204.354 245.722 205.679 246.55 206.828 247.675C207.988 248.799 208.899 250.232 209.562 251.972C210.225 253.7 210.556 255.759 210.556 258.151V260.121H188.202V255.789H204.395C204.383 254.558 204.117 253.463 203.596 252.504C203.075 251.534 202.347 250.77 201.412 250.214C200.489 249.657 199.412 249.379 198.181 249.379C196.867 249.379 195.713 249.699 194.718 250.338C193.724 250.965 192.949 251.794 192.392 252.824C191.848 253.842 191.57 254.96 191.558 256.18V259.962C191.558 261.548 191.848 262.909 192.428 264.045C193.008 265.17 193.819 266.034 194.86 266.638C195.902 267.23 197.121 267.526 198.518 267.526C199.453 267.526 200.299 267.395 201.057 267.135C201.815 266.863 202.472 266.466 203.028 265.945C203.584 265.424 204.004 264.779 204.289 264.01L210.29 264.685C209.911 266.271 209.189 267.656 208.124 268.839C207.07 270.011 205.721 270.923 204.075 271.574C202.43 272.213 200.548 272.533 198.429 272.533ZM227.89 272.533C225.168 272.533 222.83 271.935 220.877 270.739C218.935 269.544 217.438 267.893 216.385 265.786C215.343 263.667 214.822 261.228 214.822 258.47C214.822 255.7 215.355 253.256 216.42 251.137C217.485 249.006 218.989 247.349 220.93 246.165C222.883 244.97 225.191 244.372 227.855 244.372C230.068 244.372 232.027 244.781 233.732 245.597C235.448 246.402 236.815 247.545 237.833 249.024C238.851 250.492 239.431 252.208 239.574 254.173H233.43C233.181 252.859 232.59 251.764 231.654 250.888C230.731 250.001 229.494 249.557 227.944 249.557C226.63 249.557 225.475 249.912 224.481 250.622C223.487 251.321 222.712 252.327 222.155 253.641C221.611 254.955 221.338 256.529 221.338 258.364C221.338 260.222 221.611 261.82 222.155 263.158C222.7 264.483 223.463 265.507 224.446 266.229C225.44 266.94 226.606 267.295 227.944 267.295C228.891 267.295 229.737 267.117 230.483 266.762C231.24 266.395 231.873 265.868 232.382 265.182C232.891 264.495 233.241 263.661 233.43 262.678H239.574C239.42 264.608 238.851 266.318 237.869 267.81C236.886 269.289 235.549 270.449 233.856 271.29C232.163 272.118 230.175 272.533 227.89 272.533ZM251.279 256.02V272H244.851V235.636H251.137V249.362H251.456C252.096 247.823 253.084 246.609 254.422 245.722C255.771 244.822 257.488 244.372 259.571 244.372C261.465 244.372 263.116 244.769 264.525 245.562C265.933 246.355 267.022 247.515 267.792 249.042C268.573 250.569 268.964 252.433 268.964 254.635V272H262.536V255.629C262.536 253.795 262.063 252.368 261.116 251.35C260.18 250.32 258.867 249.805 257.174 249.805C256.037 249.805 255.019 250.054 254.12 250.551C253.232 251.036 252.534 251.741 252.025 252.664C251.528 253.587 251.279 254.706 251.279 256.02ZM288.202 272V235.636H301.838C304.632 235.636 306.976 236.122 308.869 237.092C310.775 238.063 312.213 239.424 313.184 241.176C314.167 242.916 314.658 244.946 314.658 247.266C314.658 249.598 314.161 251.622 313.166 253.339C312.184 255.043 310.734 256.363 308.816 257.298C306.899 258.222 304.543 258.683 301.749 258.683H292.037V253.214H300.862C302.495 253.214 303.833 252.99 304.874 252.54C305.916 252.078 306.686 251.409 307.183 250.533C307.692 249.646 307.946 248.557 307.946 247.266C307.946 245.976 307.692 244.875 307.183 243.964C306.674 243.04 305.898 242.342 304.857 241.869C303.815 241.383 302.472 241.141 300.826 241.141H294.789V272H288.202ZM306.987 255.523L315.99 272H308.639L299.796 255.523H306.987ZM331.304 272.533C328.818 272.533 326.681 272.083 324.894 271.183C323.107 270.284 321.728 269.07 320.757 267.543C319.798 266.004 319.319 264.27 319.319 262.341C319.319 260.885 319.615 259.595 320.206 258.47C320.81 257.346 321.639 256.304 322.692 255.345C323.758 254.386 324.989 253.433 326.385 252.487L332.831 248.101C333.778 247.485 334.494 246.834 334.979 246.148C335.476 245.461 335.725 244.656 335.725 243.733C335.725 242.952 335.394 242.212 334.731 241.513C334.08 240.815 333.18 240.466 332.032 240.466C331.262 240.466 330.582 240.649 329.99 241.016C329.41 241.371 328.954 241.839 328.623 242.419C328.303 242.999 328.143 243.615 328.143 244.266C328.143 245.059 328.362 245.864 328.8 246.68C329.25 247.497 329.83 248.344 330.54 249.219C331.262 250.095 332.032 251.025 332.849 252.007L349.912 272H342.952L328.782 255.771C327.729 254.54 326.711 253.327 325.729 252.131C324.758 250.936 323.959 249.693 323.331 248.403C322.716 247.101 322.408 245.692 322.408 244.177C322.408 242.46 322.805 240.928 323.598 239.578C324.391 238.217 325.498 237.146 326.918 236.364C328.35 235.583 330.025 235.192 331.943 235.192C333.861 235.192 335.506 235.571 336.879 236.329C338.252 237.086 339.312 238.093 340.057 239.347C340.803 240.602 341.176 241.969 341.176 243.449C341.176 245.165 340.75 246.704 339.898 248.065C339.045 249.415 337.862 250.64 336.346 251.741L328.996 257.121C327.788 257.997 326.924 258.884 326.403 259.784C325.882 260.672 325.622 261.429 325.622 262.057C325.622 263.016 325.865 263.886 326.35 264.667C326.835 265.448 327.516 266.076 328.392 266.549C329.28 267.011 330.315 267.241 331.499 267.241C332.801 267.241 334.086 266.951 335.352 266.371C336.619 265.78 337.773 264.939 338.814 263.85C339.856 262.761 340.685 261.459 341.3 259.944C341.916 258.417 342.224 256.724 342.224 254.866H347.746C347.746 257.162 347.491 259.163 346.982 260.867C346.473 262.56 345.816 263.992 345.011 265.164C344.206 266.324 343.354 267.253 342.454 267.952C342.17 268.153 341.898 268.354 341.638 268.555C341.377 268.757 341.105 268.958 340.821 269.159C339.542 270.319 338.045 271.171 336.329 271.716C334.624 272.26 332.949 272.533 331.304 272.533ZM353.876 272V235.636H367.512C370.306 235.636 372.649 236.157 374.543 237.199C376.449 238.241 377.887 239.673 378.858 241.496C379.84 243.307 380.332 245.366 380.332 247.675C380.332 250.007 379.84 252.078 378.858 253.889C377.875 255.7 376.425 257.127 374.508 258.168C372.59 259.198 370.229 259.713 367.423 259.713H358.386V254.298H366.536C368.169 254.298 369.507 254.013 370.548 253.445C371.59 252.877 372.359 252.096 372.857 251.102C373.366 250.107 373.62 248.965 373.62 247.675C373.62 246.384 373.366 245.248 372.857 244.266C372.359 243.283 371.584 242.52 370.531 241.975C369.489 241.419 368.145 241.141 366.5 241.141H360.463V272H353.876Z" fill="#04E9FF"/>
<defs>
<filter id="filter0_ddd_1179_1641" x="0" y="0" width="536" height="538" filterUnits="userSpaceOnUse" color-interpolation-filters="sRGB">
<feFlood flood-opacity="0" result="BackgroundImageFix"/>
<feColorMatrix in="SourceAlpha" type="matrix" values="0 0 0 0 0 0 0 0 0 0 0 0 0 0 0 0 0 0 127 0" result="hardAlpha"/>
<feOffset dy="2"/>
<feGaussianBlur stdDeviation="2"/>
<feColorMatrix type="matrix" values="0 0 0 0 0 0 0 0 0 0 0 0 0 0 0 0 0 0 1 0"/>
<feBlend mode="normal" in2="BackgroundImageFix" result="effect1_dropShadow_1179_1641"/>
<feColorMatrix in="SourceAlpha" type="matrix" values="0 0 0 0 0 0 0 0 0 0 0 0 0 0 0 0 0 0 127 0" result="hardAlpha"/>
<feOffset dy="4"/>
<feGaussianBlur stdDeviation="7"/>
<feColorMatrix type="matrix" values="0 0 0 0 0 0 0 0 0 0 0 0 0 0 0 0 0 0 0.5 0"/>
<feBlend mode="normal" in2="effect1_dropShadow_1179_1641" result="effect2_dropShadow_1179_1641"/>
<feColorMatrix in="SourceAlpha" type="matrix" values="0 0 0 0 0 0 0 0 0 0 0 0 0 0 0 0 0 0 127 0" result="hardAlpha"/>
<feOffset dy="16"/>
<feGaussianBlur stdDeviation="12"/>
<feColorMatrix type="matrix" values="0 0 0 0 0 0 0 0 0 0 0 0 0 0 0 0 0 0 0.25 0"/>
<feBlend mode="normal" in2="effect2_dropShadow_1179_1641" result="effect3_dropShadow_1179_1641"/>
<feBlend mode="normal" in="SourceGraphic" in2="effect3_dropShadow_1179_1641" result="shape"/>
</filter>
<filter id="filter1_f_1179_1641" x="51" y="37" width="434" height="434" filterUnits="userSpaceOnUse" color-interpolation-filters="sRGB">
<feFlood flood-opacity="0" result="BackgroundImageFix"/>
<feBlend mode="normal" in="SourceGraphic" in2="BackgroundImageFix" result="shape"/>
<feGaussianBlur stdDeviation="6" result="effect1_foregroundBlur_1179_1641"/>
</filter>
<filter id="filter2_f_1179_1641" x="43" y="29" width="450" height="450" filterUnits="userSpaceOnUse" color-interpolation-filters="sRGB">
<feFlood flood-opacity="0" result="BackgroundImageFix"/>
<feBlend mode="normal" in="SourceGraphic" in2="BackgroundImageFix" result="shape"/>
<feGaussianBlur stdDeviation="10" result="effect1_foregroundBlur_1179_1641"/>
</filter>
<filter id="filter3_dddddd_1179_1641" x="107" y="93" width="322" height="322" filterUnits="userSpaceOnUse" color-interpolation-filters="sRGB">
<feFlood flood-opacity="0" result="BackgroundImageFix"/>
<feColorMatrix in="SourceAlpha" type="matrix" values="0 0 0 0 0 0 0 0 0 0 0 0 0 0 0 0 0 0 127 0" result="hardAlpha"/>
<feOffset/>
<feGaussianBlur stdDeviation="6"/>
<feColorMatrix type="matrix" values="0 0 0 0 0.0588235 0 0 0 0 0.639216 0 0 0 0 0.694118 0 0 0 1 0"/>
<feBlend mode="normal" in2="BackgroundImageFix" result="effect1_dropShadow_1179_1641"/>
<feColorMatrix in="SourceAlpha" type="matrix" values="0 0 0 0 0 0 0 0 0 0 0 0 0 0 0 0 0 0 127 0" result="hardAlpha"/>
<feOffset/>
<feGaussianBlur stdDeviation="4"/>
<feColorMatrix type="matrix" values="0 0 0 0 0.0588235 0 0 0 0 0.639216 0 0 0 0 0.694118 0 0 0 1 0"/>
<feBlend mode="normal" in2="effect1_dropShadow_1179_1641" result="effect2_dropShadow_1179_1641"/>
<feColorMatrix in="SourceAlpha" type="matrix" values="0 0 0 0 0 0 0 0 0 0 0 0 0 0 0 0 0 0 127 0" result="hardAlpha"/>
<feOffset/>
<feGaussianBlur stdDeviation="3"/>
<feColorMatrix type="matrix" values="0 0 0 0 0.0588235 0 0 0 0 0.639216 0 0 0 0 0.694118 0 0 0 1 0"/>
<feBlend mode="normal" in2="effect2_dropShadow_1179_1641" result="effect3_dropShadow_1179_1641"/>
<feColorMatrix in="SourceAlpha" type="matrix" values="0 0 0 0 0 0 0 0 0 0 0 0 0 0 0 0 0 0 127 0" result="hardAlpha"/>
<feOffset/>
<feGaussianBlur stdDeviation="9"/>
<feColorMatrix type="matrix" values="0 0 0 0 0.0588235 0 0 0 0 0.639216 0 0 0 0 0.694118 0 0 0 1 0"/>
<feBlend mode="normal" in2="effect3_dropShadow_1179_1641" result="effect4_dropShadow_1179_1641"/>
<feColorMatrix in="SourceAlpha" type="matrix" values="0 0 0 0 0 0 0 0 0 0 0 0 0 0 0 0 0 0 127 0" result="hardAlpha"/>
<feOffset/>
<feGaussianBlur stdDeviation="12"/>
<feColorMatrix type="matrix" values="0 0 0 0 0.0588235 0 0 0 0 0.639216 0 0 0 0 0.694118 0 0 0 1 0"/>
<feBlend mode="normal" in2="effect4_dropShadow_1179_1641" result="effect5_dropShadow_1179_1641"/>
<feColorMatrix in="SourceAlpha" type="matrix" values="0 0 0 0 0 0 0 0 0 0 0 0 0 0 0 0 0 0 127 0" result="hardAlpha"/>
<feOffset/>
<feGaussianBlur stdDeviation="9"/>
<feColorMatrix type="matrix" values="0 0 0 0 0.0588235 0 0 0 0 0.639216 0 0 0 0 0.694118 0 0 0 1 0"/>
<feBlend mode="normal" in2="effect5_dropShadow_1179_1641" result="effect6_dropShadow_1179_1641"/>
<feBlend mode="normal" in="SourceGraphic" in2="effect6_dropShadow_1179_1641" result="shape"/>
</filter>
<linearGradient id="paint0_linear_1179_1641" x1="132" y1="439" x2="403" y2="439" gradientUnits="userSpaceOnUse">
<stop stop-color="#1E2429" stop-opacity="0"/>
<stop offset="0.526042" stop-color="#1E2429"/>
<stop offset="1" stop-color="#1E2429" stop-opacity="0"/>
</linearGradient>
<linearGradient id="paint1_linear_1179_1641" x1="268" y1="10" x2="268" y2="498" gradientUnits="userSpaceOnUse">
<stop stop-color="#22272F"/>
<stop offset="1" stop-color="#15181D"/>
</linearGradient>
<linearGradient id="paint2_linear_1179_1641" x1="114.5" y1="10" x2="396.5" y2="9.99999" gradientUnits="userSpaceOnUse">
<stop stop-color="#22272F" stop-opacity="0"/>
<stop offset="0.541667" stop-color="#404957"/>
<stop offset="1" stop-color="#22272F" stop-opacity="0"/>
</linearGradient>
<linearGradient id="paint3_linear_1179_1641" x1="458" y1="10" x2="77.9999" y2="10" gradientUnits="userSpaceOnUse">
<stop stop-color="#8A99A8" stop-opacity="0"/>
<stop offset="0.520833" stop-color="#8A99A8"/>
<stop offset="1" stop-color="#8A99A8" stop-opacity="0"/>
</linearGradient>
<linearGradient id="paint4_linear_1179_1641" x1="458" y1="10" x2="77.9999" y2="10" gradientUnits="userSpaceOnUse">
<stop stop-color="#8A99A8" stop-opacity="0"/>
<stop offset="0.520833" stop-color="#8A99A8"/>
<stop offset="1" stop-color="#8A99A8" stop-opacity="0"/>
</linearGradient>
<linearGradient id="paint5_linear_1179_1641" x1="359" y1="35" x2="177" y2="35" gradientUnits="userSpaceOnUse">
<stop stop-color="#8A99A8" stop-opacity="0"/>
<stop offset="0.515625" stop-color="#8A99A8"/>
<stop offset="1" stop-color="#8A99A8" stop-opacity="0"/>
</linearGradient>
</defs>
</svg>
