<svg width="41" height="41" viewBox="0 0 41 41" fill="none" xmlns="http://www.w3.org/2000/svg">
<path d="M1.5 34.75C1.5 32.2304 2.50089 29.8141 4.28249 28.0325C6.06408 26.2509 8.48044 25.25 11 25.25H30C32.5196 25.25 34.9359 26.2509 36.7175 28.0325C38.4991 29.8141 39.5 32.2304 39.5 34.75C39.5 36.0098 38.9996 37.218 38.1088 38.1088C37.218 38.9996 36.0098 39.5 34.75 39.5H6.25C4.99022 39.5 3.78204 38.9996 2.89124 38.1088C2.00044 37.218 1.5 36.0098 1.5 34.75Z" stroke="#0FA3B1" stroke-width="2" stroke-linejoin="round"/>
<path d="M20.5 15.75C24.435 15.75 27.625 12.56 27.625 8.625C27.625 4.68997 24.435 1.5 20.5 1.5C16.565 1.5 13.375 4.68997 13.375 8.625C13.375 12.56 16.565 15.75 20.5 15.75Z" stroke="#0FA3B1" stroke-width="2"/>
</svg>
