<svg width="44" height="44" viewBox="0 0 44 44" fill="none" xmlns="http://www.w3.org/2000/svg">
<rect x="0.5" y="0.5" width="43" height="43" rx="21.5" fill="white"/>
<rect x="0.5" y="0.5" width="43" height="43" rx="21.5" stroke="#0FA3B1"/>
<rect x="0.5" y="0.5" width="43" height="43" rx="21.5" stroke="black" stroke-opacity="0.2"/>
<rect x="0.5" y="0.5" width="43" height="43" rx="21.5" stroke="black" stroke-opacity="0.2"/>
<rect x="0.5" y="0.5" width="43" height="43" rx="21.5" stroke="black" stroke-opacity="0.2"/>
<path d="M21 29C25.4183 29 29 25.4183 29 21C29 16.5817 25.4183 13 21 13C16.5817 13 13 16.5817 13 21C13 25.4183 16.5817 29 21 29Z" stroke="#006771" stroke-width="2" stroke-linecap="round" stroke-linejoin="round"/>
<path d="M31.0002 31.0002L26.7002 26.7002" stroke="#0FA3B1" stroke-width="2" stroke-linecap="round" stroke-linejoin="round"/>
<path d="M31.0002 31.0002L26.7002 26.7002" stroke="black" stroke-opacity="0.2" stroke-width="2" stroke-linecap="round" stroke-linejoin="round"/>
<path d="M31.0002 31.0002L26.7002 26.7002" stroke="black" stroke-opacity="0.2" stroke-width="2" stroke-linecap="round" stroke-linejoin="round"/>
<path d="M31.0002 31.0002L26.7002 26.7002" stroke="black" stroke-opacity="0.2" stroke-width="2" stroke-linecap="round" stroke-linejoin="round"/>
</svg>
